/* XPM */
static char * rhstudio_xpm[] = {
"48 48 930 2",
"  	c None",
". 	c #000000",
"+ 	c #36B4EA",
"@ 	c #767676",
"# 	c #7A7A7A",
"$ 	c #737373",
"% 	c #686868",
"& 	c #626262",
"* 	c #5E5E5E",
"= 	c #5D5D5D",
"- 	c #5C5C5C",
"; 	c #575757",
"> 	c #4A4A4A",
", 	c #343434",
"' 	c #171717",
") 	c #72DCFF",
"! 	c #60CDFF",
"~ 	c #E5F8E7",
"{ 	c #E2F7E4",
"] 	c #DFF6E2",
"^ 	c #DDF5E0",
"/ 	c #DCF5DF",
"( 	c #DBF5DE",
"_ 	c #DAF4DE",
": 	c #D9F4DC",
"< 	c #D7F3DB",
"[ 	c #D7F2DA",
"} 	c #D5F1D9",
"| 	c #D2F0D6",
"1 	c #CEEED2",
"2 	c #C8ECCD",
"3 	c #B7DEBC",
"4 	c #93C29A",
"5 	c #63CAFF",
"6 	c #58D1FF",
"7 	c #51D4FF",
"8 	c #616161",
"9 	c #E0F6E3",
"0 	c #C7EFCC",
"a 	c #C0EDC6",
"b 	c #BDECC3",
"c 	c #BBECC2",
"d 	c #BBECC1",
"e 	c #BAEBC0",
"f 	c #B8EABE",
"g 	c #B6E9BD",
"h 	c #B3E8BB",
"i 	c #B2E7B9",
"j 	c #B0E5B7",
"k 	c #ADE3B4",
"l 	c #A9E2B1",
"m 	c #A6DFAE",
"n 	c #9FDCA7",
"o 	c #94D59D",
"p 	c #77BB80",
"q 	c #3C8C47",
"r 	c #A2EAFE",
"s 	c #95D5FE",
"t 	c #4FD8FF",
"u 	c #4CDDFF",
"v 	c #45DCFF",
"w 	c #4E4E4E",
"x 	c #BEEDC4",
"y 	c #A5E6AE",
"z 	c #9EE2A7",
"A 	c #99DEA3",
"B 	c #98DDA2",
"C 	c #96DBA0",
"D 	c #94DA9E",
"E 	c #93D89C",
"F 	c #8FD799",
"G 	c #8CD696",
"H 	c #89D494",
"I 	c #85D190",
"J 	c #83D08D",
"K 	c #7ECC89",
"L 	c #79C883",
"M 	c #71C37C",
"N 	c #68BC73",
"O 	c #50A35B",
"P 	c #358640",
"Q 	c #A7E0FE",
"R 	c #45DEFF",
"S 	c #23C1EA",
"T 	c #404040",
"U 	c #B9EBC0",
"V 	c #9ADFA3",
"W 	c #8FD698",
"X 	c #89D194",
"Y 	c #87D192",
"Z 	c #85CE8F",
"` 	c #84CD8E",
" .	c #80CC8B",
"..	c #7ECA88",
"+.	c #7BC886",
"@.	c #78C683",
"#.	c #74C47F",
"$.	c #71C27C",
"%.	c #6DBF79",
"&.	c #69BB74",
"*.	c #62B76E",
"=.	c #5CB167",
"-.	c #479B53",
";.	c #31823C",
">.	c #A0E5FE",
",.	c #3BE6FF",
"'.	c #383838",
").	c #D4F0D8",
"!.	c #B6EABD",
"~.	c #93D99D",
"{.	c #88D092",
"].	c #83CC8D",
"^.	c #7FCA8A",
"/.	c #7DC988",
"(.	c #7AC685",
"_.	c #78C582",
":.	c #75C480",
"<.	c #72C17D",
"[.	c #6FBF7B",
"}.	c #6CBD77",
"|.	c #64B770",
"1.	c #60B56B",
"2.	c #5BB166",
"3.	c #54AB60",
"4.	c #43984E",
"5.	c #2E7F39",
"6.	c #97E9FE",
"7.	c #31EEFF",
"8.	c #363636",
"9.	c #D3EFD6",
"0.	c #B5E9BC",
"a.	c #91D89B",
"b.	c #7FCA89",
"c.	c #7BC786",
"d.	c #79C584",
"e.	c #76C381",
"f.	c #73C27E",
"g.	c #71BF7B",
"h.	c #6DBD78",
"i.	c #69BC76",
"j.	c #67B971",
"k.	c #63B76E",
"l.	c #60B46C",
"m.	c #56AD62",
"n.	c #4FA75B",
"o.	c #3F954A",
"p.	c #2C7F37",
"q.	c #8DEDFD",
"r.	c #27F4FE",
"s.	c #D2EED5",
"t.	c #B2E8B9",
"u.	c #8ED698",
"v.	c #81CC8C",
"w.	c #7CC886",
"x.	c #78C483",
"y.	c #75C380",
"z.	c #6FBF7A",
"A.	c #6CBC77",
"B.	c #68BB74",
"C.	c #65B871",
"D.	c #62B56D",
"E.	c #5FB36A",
"F.	c #50AA5D",
"G.	c #4BA457",
"H.	c #3B9247",
"I.	c #2A7D34",
"J.	c #27F5FF",
"K.	c #373737",
"L.	c #D2EFD6",
"M.	c #B0E6B7",
"N.	c #8AD495",
"O.	c #7EC989",
"P.	c #78C583",
"Q.	c #74C280",
"R.	c #71C07C",
"S.	c #6EBE79",
"T.	c #6BBC76",
"U.	c #68BA72",
"V.	c #64B86F",
"W.	c #60B56D",
"X.	c #5DB368",
"Y.	c #59B065",
"Z.	c #56AD61",
"`.	c #51AA5E",
" +	c #4BA658",
".+	c #46A152",
"++	c #379043",
"@+	c #287B32",
"#+	c #83F0FC",
"$+	c #20FBFF",
"%+	c #D1EFD5",
"&+	c #AEE5B6",
"*+	c #87D191",
"=+	c #7AC785",
"-+	c #74C37F",
";+	c #71C07B",
">+	c #6ABC75",
",+	c #63B66F",
"'+	c #60B36C",
")+	c #5CB268",
"!+	c #58AF63",
"~+	c #54AD60",
"{+	c #4CA759",
"]+	c #47A354",
"^+	c #419D4E",
"/+	c #348D40",
"(+	c #267A31",
"_+	c #3FD4ED",
":+	c #1ED6EF",
"<+	c #393939",
"[+	c #D1F0D5",
"}+	c #AAE3B2",
"|+	c #82CE8E",
"1+	c #76C482",
"2+	c #70C07B",
"3+	c #6DBC77",
"4+	c #65B971",
"5+	c #62B66D",
"6+	c #5EB36A",
"7+	c #5BB167",
"8+	c #57AE62",
"9+	c #53AB5F",
"0+	c #4FA95C",
"a+	c #4CA758",
"b+	c #47A455",
"c+	c #429F4F",
"d+	c #3D9B4A",
"e+	c #308B3D",
"f+	c #24782F",
"g+	c #D0F0D4",
"h+	c #A6E1AE",
"i+	c #7FCB89",
"j+	c #72C27D",
"k+	c #67BA73",
"l+	c #64B870",
"m+	c #60B56C",
"n+	c #5DB369",
"o+	c #56AE61",
"p+	c #52AB5E",
"q+	c #4EA95A",
"r+	c #4AA657",
"s+	c #46A353",
"t+	c #43A14F",
"u+	c #3E9C4B",
"v+	c #389745",
"w+	c #2D8939",
"x+	c #21772D",
"y+	c #CEEED3",
"z+	c #A3DFAB",
"A+	c #7AC985",
"B+	c #6EBF79",
"C+	c #67BA72",
"D+	c #63B66E",
"E+	c #5FB36B",
"F+	c #57B064",
"G+	c #54AC61",
"H+	c #4CA859",
"I+	c #49A555",
"J+	c #46A352",
"K+	c #42A14F",
"L+	c #3E9D4B",
"M+	c #399946",
"N+	c #349441",
"O+	c #2A8736",
"P+	c #20752B",
"Q+	c #565656",
"R+	c #474746",
"S+	c #4B4B4B",
"T+	c #494949",
"U+	c #444443",
"V+	c #3B3A38",
"W+	c #3E3E3E",
"X+	c #B2CCB4",
"Y+	c #99D6A2",
"Z+	c #74C47E",
"`+	c #62B66E",
" @	c #54AC5F",
".@	c #4BA759",
"+@	c #48A454",
"@@	c #45A251",
"#@	c #419F4D",
"$@	c #3E9D4A",
"%@	c #3A9A46",
"&@	c #359642",
"*@	c #31913D",
"=@	c #288434",
"-@	c #1E742A",
";@	c #858585",
">@	c #575756",
",@	c #8D8C86",
"'@	c #A6A198",
")@	c #C1BBAD",
"!@	c #D0C8B9",
"~@	c #C4BCAC",
"{@	c #979187",
"]@	c #3B3A37",
"^@	c #3E403B",
"/@	c #6A8669",
"(@	c #68B170",
"_@	c #61B36D",
":@	c #5DB168",
"<@	c #55AD62",
"[@	c #51A85D",
"}@	c #4A9B54",
"|@	c #49A355",
"1@	c #46A354",
"2@	c #43A250",
"3@	c #409F4D",
"4@	c #3C9C49",
"5@	c #399A46",
"6@	c #359742",
"7@	c #31943E",
"8@	c #2C9039",
"9@	c #258231",
"0@	c #1C7328",
"a@	c #6D6D6C",
"b@	c #6E6C6B",
"c@	c #B8B3AC",
"d@	c #D6D0C0",
"e@	c #D7D7C4",
"f@	c #DBDBCD",
"g@	c #E3E3D4",
"h@	c #EEEEDC",
"i@	c #F6F6E2",
"j@	c #F7F5CE",
"k@	c #E3D0AB",
"l@	c #ACA386",
"m@	c #434537",
"n@	c #394631",
"o@	c #549559",
"p@	c #54A660",
"q@	c #52A95F",
"r@	c #51A75D",
"s@	c #50975A",
"t@	c #29392C",
"u@	c #3C8546",
"v@	c #409A4C",
"w@	c #3A9A47",
"x@	c #389A45",
"y@	c #359842",
"z@	c #2D913A",
"A@	c #298C36",
"B@	c #22812E",
"C@	c #1B7226",
"D@	c #716F6F",
"E@	c #B8B2A9",
"F@	c #F2E8D5",
"G@	c #EFEFDA",
"H@	c #EDEDDE",
"I@	c #EDEDD8",
"J@	c #EEEED6",
"K@	c #F2F1D4",
"L@	c #F5F3CD",
"M@	c #F6F3C4",
"N@	c #F7F2BE",
"O@	c #F2EDB7",
"P@	c #F0E3A0",
"Q@	c #DDBB72",
"R@	c #70653E",
"S@	c #35402B",
"T@	c #489351",
"U@	c #499E55",
"V@	c #4C9B58",
"W@	c #38443A",
"X@	c #A7B4BB",
"Y@	c #334A39",
"Z@	c #33803D",
"`@	c #369242",
" #	c #359441",
".#	c #33953F",
"+#	c #30933D",
"@#	c #2C913A",
"##	c #298E36",
"$#	c #268A32",
"%#	c #1F7E2C",
"&#	c #1A7125",
"*#	c #757372",
"=#	c #F9EFDB",
"-#	c #FCFCEC",
";#	c #FBFBE5",
">#	c #FAFAE0",
",#	c #F8F7D7",
"'#	c #F6F2C8",
")#	c #F5F0BF",
"!#	c #F5F0B9",
"~#	c #F6F0B3",
"{#	c #F6EEAE",
"]#	c #F4EAA6",
"^#	c #F3E5A0",
"/#	c #EDD785",
"(#	c #CFA655",
"_#	c #393B28",
":#	c #3F613A",
"<#	c #3F8D4B",
"[#	c #509259",
"}#	c #434B47",
"|#	c #C1CCDA",
"1#	c #3B4C4B",
"2#	c #286632",
"3#	c #2C8038",
"4#	c #2E893A",
"5#	c #2D8E3A",
"6#	c #2B8F38",
"7#	c #288D36",
"8#	c #258A32",
"9#	c #228530",
"0#	c #717171",
"a#	c #D0CBC2",
"b#	c #FDFDE6",
"c#	c #FFFFE8",
"d#	c #FFFFE2",
"e#	c #FBF9CF",
"f#	c #F8F3C1",
"g#	c #F6F0B7",
"h#	c #F6EEB1",
"i#	c #F5EDAD",
"j#	c #F5EAA8",
"k#	c #F5E9A4",
"l#	c #F4E69E",
"m#	c #F4E199",
"n#	c #F1DA8A",
"o#	c #E7BF60",
"p#	c #8F7A3F",
"q#	c #2F3224",
"r#	c #3E7343",
"s#	c #3F4A41",
"t#	c #D0DBE1",
"u#	c #DBF0FF",
"v#	c #7899BA",
"w#	c #1C362C",
"x#	c #20652A",
"y#	c #267E32",
"z#	c #278633",
"A#	c #278832",
"B#	c #248931",
"C#	c #22852F",
"D#	c #1F812B",
"E#	c #53D8F3",
"F#	c #6F6F6D",
"G#	c #FAF1DE",
"H#	c #FEFEE9",
"I#	c #FFFFE1",
"J#	c #FBF9CD",
"K#	c #F7F2BC",
"L#	c #F6EFB1",
"M#	c #F5ECAC",
"N#	c #F4E8A3",
"O#	c #F4E69F",
"P#	c #F4E49B",
"Q#	c #F4E297",
"R#	c #F3DE8F",
"S#	c #F1D684",
"T#	c #ECC667",
"U#	c #CF9E45",
"V#	c #373726",
"W#	c #485F44",
"X#	c #494E4B",
"Y#	c #DEE9F7",
"Z#	c #E4FAFF",
"`#	c #9CBEDE",
" $	c #283A41",
".$	c #184B20",
"+$	c #1D6726",
"@$	c #1F752A",
"#$	c #1E7B2B",
"$$	c #1E7D2A",
"%$	c #1C7B29",
"&$	c #1A7726",
"*$	c #80EBF7",
"=$	c #1FF4F8",
"-$	c #22BBE3",
";$	c #656564",
">$	c #BCB8B1",
",$	c #FDFDE4",
"'$	c #FDFBD3",
")$	c #F8F3BD",
"!$	c #F6EEAF",
"~$	c #F5ECA9",
"{$	c #F4E9A4",
"]$	c #F4E6A0",
"^$	c #F4E49C",
"/$	c #F4E093",
"($	c #F4DE8E",
"_$	c #F3D987",
":$	c #F2D47F",
"<$	c #EFCD6F",
"[$	c #E4B54D",
"}$	c #7E693D",
"|$	c #404240",
"1$	c #D3DEE2",
"2$	c #E9F9FF",
"3$	c #E5FCFF",
"4$	c #B9DAF1",
"5$	c #648AAD",
"6$	c #152C26",
"7$	c #134D1A",
"8$	c #176321",
"9$	c #196B23",
"0$	c #196F24",
"a$	c #186D22",
"b$	c #176921",
"c$	c #89E6F6",
"d$	c #25EAF4",
"e$	c #21B7DE",
"f$	c #D7D2C3",
"g$	c #FDFDEA",
"h$	c #FFFFDB",
"i$	c #FAF5C0",
"j$	c #F5EAA7",
"k$	c #F4E6A2",
"l$	c #F4E69D",
"m$	c #F4E298",
"n$	c #F4E095",
"o$	c #F4DD90",
"p$	c #F4DB8D",
"q$	c #F4D887",
"r$	c #F3D47F",
"s$	c #F2D078",
"t$	c #F0CA6D",
"u$	c #E6B552",
"v$	c #A17C48",
"w$	c #4B4B4C",
"x$	c #DFEAF8",
"y$	c #E9FCFF",
"z$	c #DDF7FB",
"A$	c #BEE2EE",
"B$	c #87AFD2",
"C$	c #222F3B",
"D$	c #040406",
"E$	c #87E4F3",
"F$	c #25E5EE",
"G$	c #21B4DA",
"H$	c #515151",
"I$	c #EBE1CB",
"J$	c #FEFEE4",
"K$	c #FCF9CA",
"L$	c #F8F1B3",
"M$	c #F5EAA6",
"N$	c #F5E6A0",
"O$	c #F4E399",
"P$	c #F4E096",
"Q$	c #F4DF92",
"R$	c #F4DD8D",
"S$	c #F4D989",
"T$	c #F4D886",
"U$	c #F3D47E",
"V$	c #F3D079",
"W$	c #F2CE71",
"X$	c #F0C665",
"Y$	c #DFB054",
"Z$	c #554D44",
"`$	c #D4DCE3",
" %	c #EAF9FF",
".%	c #E6FCFF",
"+%	c #D2EFF6",
"@%	c #BCE1EC",
"#%	c #A5CDE7",
"$%	c #6085AC",
"%%	c #121923",
"&%	c #010202",
"*%	c #93E3F7",
"=%	c #2FE4F4",
"-%	c #424242",
";%	c #E8DBC1",
">%	c #FEFEDC",
",%	c #FAF2B9",
"'%	c #F6E9A8",
")%	c #F5E49D",
"!%	c #F4DF94",
"~%	c #F4DD8E",
"{%	c #F4DA8B",
"]%	c #F4D681",
"^%	c #F4D47D",
"/%	c #F3D177",
"(%	c #F2CC72",
"_%	c #F1C969",
":%	c #EEC161",
"<%	c #D4AB59",
"[%	c #54524D",
"}%	c #E0EAF8",
"|%	c #E3FBFE",
"1%	c #C9E9F2",
"2%	c #BADCEB",
"3%	c #ACD4E7",
"4%	c #80A9D0",
"5%	c #24303E",
"6%	c #060709",
"7%	c #9DE1F9",
"8%	c #39E0F8",
"9%	c #383837",
"0%	c #CDBFA5",
"a%	c #F9F7C8",
"b%	c #F8ECAB",
"c%	c #F6E49E",
"d%	c #F5E096",
"e%	c #F4DE90",
"f%	c #F4DB8A",
"g%	c #F4D682",
"h%	c #F4D37D",
"i%	c #F4D27B",
"j%	c #F3CE75",
"k%	c #F3CC6F",
"l%	c #F2C769",
"m%	c #F1C462",
"n%	c #E1B55B",
"o%	c #5A5245",
"p%	c #D6DCE3",
"q%	c #E8F9FF",
"r%	c #E6F8FF",
"s%	c #D3F1F8",
"t%	c #BEE3EF",
"u%	c #B4DBEB",
"v%	c #ACD5E8",
"w%	c #99C6E6",
"x%	c #5A84AD",
"y%	c #131A26",
"z%	c #A6DEFC",
"A%	c #44DBFB",
"B%	c #22BEE6",
"C%	c #32302E",
"D%	c #958873",
"E%	c #F5E7AA",
"F%	c #F5E59F",
"G%	c #F5E093",
"H%	c #F4DC8D",
"I%	c #F4D889",
"J%	c #F4D884",
"K%	c #F4D480",
"L%	c #F4D27C",
"M%	c #F4CF77",
"N%	c #F3CD71",
"O%	c #F3C96C",
"P%	c #F2C667",
"Q%	c #F1C260",
"R%	c #EEBD5A",
"S%	c #D7AA58",
"T%	c #57534D",
"U%	c #DEEAF9",
"V%	c #E2F9FF",
"W%	c #DDF7FF",
"X%	c #C5E6F4",
"Y%	c #B7DCEE",
"Z%	c #B0D9EB",
"`%	c #ABD5E9",
" &	c #A1CEE7",
".&	c #79A5CE",
"+&	c #23303F",
"@&	c #06090C",
"#&	c #9EE4F8",
"$&	c #3C372E",
"%&	c #EEC680",
"&&	c #F3DD91",
"*&	c #F4D783",
"=&	c #F3D17B",
"-&	c #F3D175",
";&	c #F3CD72",
">&	c #F3C96E",
",&	c #F3C86A",
"'&	c #F2C664",
")&	c #F1C25D",
"!&	c #F0BF59",
"~&	c #E2B256",
"{&	c #D4DBE3",
"]&	c #E1F5FF",
"^&	c #DBF4FF",
"/&	c #CBE9F9",
"(&	c #B8DFF1",
"_&	c #B0D9ED",
":&	c #AAD4EB",
"<&	c #A6D2E9",
"[&	c #9DCDE8",
"}&	c #8FBEE6",
"|&	c #5480AC",
"1&	c #141B25",
"2&	c #71D9FC",
"3&	c #2F2C27",
"4&	c #A88651",
"5&	c #EECD73",
"6&	c #F2D27E",
"7&	c #F3D27A",
"8&	c #F3D075",
"9&	c #F3CD73",
"0&	c #F3CB6C",
"a&	c #F3C86B",
"b&	c #F2C666",
"c&	c #F2C361",
"d&	c #F1C05C",
"e&	c #F0BD57",
"f&	c #EDB852",
"g&	c #D6A754",
"h&	c #56534D",
"i&	c #D7E6F6",
"j&	c #DAF4FF",
"k&	c #D1EFFF",
"l&	c #BBE1F4",
"m&	c #AFD7EE",
"n&	c #A7D3EC",
"o&	c #A4D1EC",
"p&	c #A1CEEB",
"q&	c #9BCAE9",
"r&	c #91C3E7",
"s&	c #6D9ECD",
"t&	c #213040",
"u&	c #3D3930",
"v&	c #3A3226",
"w&	c #E8AC51",
"x&	c #EFC96B",
"y&	c #F0C76C",
"z&	c #F2C868",
"A&	c #F2C565",
"B&	c #F2C261",
"C&	c #F1C05D",
"D&	c #F1BE59",
"E&	c #F0BB54",
"F&	c #EFB84E",
"G&	c #E0AC4E",
"H&	c #595144",
"I&	c #D0D7E2",
"J&	c #D9F1FF",
"K&	c #D1EEFF",
"L&	c #BCE3F9",
"M&	c #ADD7F1",
"N&	c #A4CFED",
"O&	c #A0CDEC",
"P&	c #9FCDEC",
"Q&	c #9AC9EB",
"R&	c #95C6E9",
"S&	c #90C3E8",
"T&	c #80B5E6",
"U&	c #4D7AAC",
"V&	c #121B25",
"W&	c #2E2A20",
"X&	c #755C34",
"Y&	c #E6A244",
"Z&	c #EBB44A",
"`&	c #EEBA51",
" *	c #EFBD59",
".*	c #F0BE59",
"+*	c #F0BB55",
"@*	c #F0BA53",
"#*	c #EFB84F",
"$*	c #EDB349",
"%*	c #E9AB3F",
"&*	c #D09E49",
"**	c #54514D",
"=*	c #D0E3F6",
"-*	c #CFEBFF",
";*	c #C4E8FF",
">*	c #AFD7F4",
",*	c #A3CFEF",
"'*	c #9ECBED",
")*	c #99C9EC",
"!*	c #97C8EC",
"~*	c #92C6EB",
"{*	c #91C2EB",
"]*	c #8AC0E9",
"^*	c #83BAE7",
"/*	c #6398CD",
"(*	c #1D2F3E",
"_*	c #06090B",
":*	c #2E281E",
"<*	c #372F20",
"[*	c #9B6F31",
"}*	c #DE9334",
"|*	c #E9AB3C",
"1*	c #ECB042",
"2*	c #EBAF40",
"3*	c #EBAC3E",
"4*	c #EBAB3B",
"5*	c #E7A332",
"6*	c #D38C35",
"7*	c #4E4942",
"8*	c #CAD4E2",
"9*	c #CFEAFF",
"0*	c #C1E7FF",
"a*	c #B0DAF9",
"b*	c #A1CEF1",
"c*	c #99C8ED",
"d*	c #93C6EC",
"e*	c #90C5EC",
"f*	c #8FC4EC",
"g*	c #8CC1EC",
"h*	c #88BDEB",
"i*	c #84BBE9",
"j*	c #80B8E8",
"k*	c #70ABE6",
"l*	c #4474AA",
"m*	c #0F1A25",
"n*	c #353125",
"o*	c #2D281F",
"p*	c #362D1E",
"q*	c #85612A",
"r*	c #B4792C",
"s*	c #CA862A",
"t*	c #CB8629",
"u*	c #B37829",
"v*	c #84602A",
"w*	c #4A453A",
"x*	c #494A4C",
"y*	c #CADEF5",
"z*	c #C3E5FF",
"A*	c #B3DDFE",
"B*	c #A0CFF4",
"C*	c #93C7EE",
"D*	c #8EC4EC",
"E*	c #8BC1EC",
"F*	c #8AC0EC",
"G*	c #87BFEC",
"H*	c #84BCEC",
"I*	c #80B9EB",
"J*	c #7EB7EA",
"K*	c #7AB4E8",
"L*	c #73AFE6",
"M*	c #598FCA",
"N*	c #1C2D3F",
"O*	c #302D22",
"P*	c #2C281D",
"Q*	c #2D2A1F",
"R*	c #2E2B20",
"S*	c #2C2A1F",
"T*	c #373229",
"U*	c #3F4040",
"V*	c #C4D2E0",
"W*	c #C3E3FF",
"X*	c #B1DEFF",
"Y*	c #A0D3F7",
"Z*	c #90C2EF",
"`*	c #88C0EC",
" =	c #85BDEB",
".=	c #83BBEB",
"+=	c #80B8EB",
"@=	c #7FB9EB",
"#=	c #7DB7EB",
"$=	c #7BB7EB",
"%=	c #76B3E9",
"&=	c #72AFE8",
"*=	c #6EADE6",
"==	c #64A2E5",
"-=	c #3F6EA8",
";=	c #0E1B26",
">=	c #3A3A3B",
",=	c #414446",
"'=	c #BBD5F4",
")=	c #B3DCFF",
"!=	c #9FCFFB",
"~=	c #8DC2F1",
"{=	c #83BCEB",
"]=	c #7DB8E9",
"^=	c #7CB6E9",
"/=	c #7AB5E9",
"(=	c #79B5E9",
"_=	c #76B2E9",
":=	c #75B0E9",
"<=	c #71AFE9",
"[=	c #6EAEE8",
"}=	c #6DACE7",
"|=	c #68A8E6",
"1=	c #63A3E5",
"2=	c #4E87C9",
"3=	c #192C40",
"4=	c #303233",
"5=	c #B4C8DD",
"6=	c #B0D8FF",
"7=	c #9CCEFD",
"8=	c #89C2F2",
"9=	c #7DB8EB",
"0=	c #77B3E8",
"a=	c #75B2E7",
"b=	c #6FAFE6",
"c=	c #6FACE6",
"d=	c #6DACE6",
"e=	c #6CABE6",
"f=	c #6BA9E6",
"g=	c #6AA9E6",
"h=	c #69A8E6",
"i=	c #64A7E5",
"j=	c #63A5E5",
"k=	c #61A4E3",
"l=	c #579AE2",
"m=	c #3A6CA6",
"n=	c #0E1726",
"o=	c #5BE7F1",
"p=	c #2A2E35",
"q=	c #9EC3EB",
"r=	c #92C6FB",
"s=	c #7DB7F1",
"t=	c #71ACE9",
"u=	c #6BA8E6",
"v=	c #68A5E4",
"w=	c #65A5E3",
"x=	c #64A4E3",
"y=	c #61A1E3",
"z=	c #61A2E3",
"A=	c #60A1E3",
"B=	c #5EA1E3",
"C=	c #5DA1E3",
"D=	c #5DA0E3",
"E=	c #5C9EE3",
"F=	c #5C9CE2",
"G=	c #599CE2",
"H=	c #5599E1",
"I=	c #457EC2",
"J=	c #18293F",
"K=	c #444951",
"L=	c #5C7FA6",
"M=	c #5C8AC5",
"N=	c #4E82C2",
"O=	c #487FBC",
"P=	c #447CB9",
"Q=	c #4279B9",
"R=	c #4078B8",
"S=	c #3F78B8",
"T=	c #3F77B8",
"U=	c #3E76B8",
"V=	c #3D74B7",
"W=	c #3C76B7",
"X=	c #3B76B7",
"Y=	c #3B75B6",
"Z=	c #386FAF",
"`=	c #2C5688",
" -	c #0E1620",
".-	c #090909",
"+-	c #0C1015",
"@-	c #090F16",
"#-	c #080E15",
"$-	c #080D14",
"%-	c #080E14",
"&-	c #080D13",
"*-	c #070D12",
"=-	c #030506",
"                    .                                                                           ",
"                  . + .           @ # $ % & * = = = = = = = = = - ; > , ' . .                   ",
"                . ) ! + .         $ ~ { ] ^ / / / / / ( _ : < [ } | 1 2 3 4 .                   ",
"              . ) 5 6 7 + .       8 9 0 a b c d d e f g h i j k l m n o p q .                   ",
"            . r s t t u v + .     w / x y z A B C D E F G H I J K L M N O P .                   ",
"          . . . . Q R S . . . .   T [ U V W X Y Z `  ...+.@.#.$.%.&.*.=.-.;..                   ",
"                . >.,.S .         '.).!.~.{.].^./.(._.:.<.[.}.&.|.1.2.3.4.5..                   ",
"                . 6.7.S .         8.9.0.a.` b.c.d.e.f.g.h.i.j.k.l.=.m.n.o.p..                   ",
"                . q.r.S .         8.s.t.u.v.w.x.y.<.z.A.B.C.D.E.2.m.F.G.H.I..                   ",
"                . q.J.S .         K.L.M.N.O.P.Q.R.S.T.U.V.W.X.Y.Z.`. +.+++@+.                   ",
"                . #+$+S .         '.%+&+*+=+-+;+h.>+j.,+'+)+!+~+F.{+]+^+/+(+.                   ",
"                . _+:+S .         <+[+}+|+1+2+3+B.4+5+6+7+8+9+0+a+b+c+d+e+f+.                   ",
"                . . . . .         <+g+h+i+j+A.k+l+m+n+Y.o+p+q+r+s+t+u+v+w+x+.                   ",
"                                  <+y+z+A+B+C+D+E+)+F+G+F.H+I+J+K+L+M+N+O+P+.                   ",
"                    Q+R+> S+T+U+V+W+X+Y+Z+&.`+6+2.8+ @0+.@+@@@#@$@%@&@*@=@-@.                   ",
"                ;@* >@,@'@)@!@~@{@]@^@/@(@_@:@Y.<@[@}@|@1@2@3@4@5@6@7@8@9@0@.                   ",
"              a@b@c@d@e@f@g@h@i@j@k@l@m@n@o@p@q@r@s@t@u@v@d+w@x@y@7@z@A@B@C@.                   ",
"            D@E@F@G@H@I@J@K@L@M@N@O@P@Q@R@S@T@U@V@W@X@Y@Z@`@ #.#+#@###$#%#&#.                   ",
"            *#=#-#;#>#,#'#)#!#~#{#]#^#/#(#_#:#<#[#}#|#1#2#3#4#5#6#7#8#9#. . . . .               ",
"          0#a#b#c#d#e#f#g#h#i#j#k#l#m#n#o#p#q#r#s#t#u#v#w#x#y#z#A#B#C#D#. #+#+E#.               ",
"          F#G#H#I#J#K#L#M#j#N#O#P#Q#R#S#T#U#V#W#X#Y#Z#`# $.$+$@$#$$$%$&$. *$=$-$.               ",
"        ;$>$,$d#'$)$!$~${$]$^$Q#/$($_$:$<$[$}$|$1$2$3$4$5$6$7$8$9$0$a$b$. c$d$e$.               ",
"        * f$g$h$i$!$j$k$l$m$n$o$p$q$r$s$t$u$v$w$x$y$z$A$B$C$D$. . . . . . E$F$G$.               ",
"        H$I$J$K$L$M$N$O$P$Q$R$S$T$U$V$W$X$Y$Z$`$ %.%+%@%#%$%%%&%        . *%=%e$.               ",
"        -%;%>%,%'%)%m$!%~%{%T$]%^%/%(%_%:%<%[%}%y$|%1%2%3%4%5%6%        . 7%8%-$.               ",
"        9%0%a%b%c%d%e%f%q$g%h%i%j%k%l%m%n%o%p%q%r%s%t%u%v%w%x%y%  . . . . z%A%B%. . . .         ",
"        C%D%E%F%G%H%I%J%K%L%M%N%O%P%Q%R%S%T%U%V%W%X%Y%Z%`% &.&+&@&  . #&s t t u v + .           ",
"          $&%&&&S$*&r$=&-&;&>&,&'&)&!&~&o%{&]&^&/&(&_&:&<&[&}&|&1&    . 2&5 6 7 + .             ",
"          3&4&5&6&7&8&9&0&a&b&c&d&e&f&g&h&i&j&k&l&m&n&o&p&q&r&s&t&@&    . ) ! + .               ",
"          u&v&w&x&y&l%z&A&B&C&D&E&F&G&H&I&J&K&L&M&N&O&P&Q&R&S&T&U&V&      . + .                 ",
"            W&X&Y&Z&`& *.*+*@*#*$*%*&***=*-*;*>*,*'*)*!*~*{*]*^*/*(*_*      .                   ",
"              :*<*[*}*|*1*2*3*4*5*6*7*8*9*0*a*b*c*d*e*f*g*h*i*j*k*l*m*                          ",
"          .     n*o*p*q*r*s*t*u*v*w*x*y*z*A*B*C*D*E*F*G*H*I*J*K*L*M*N*@&                        ",
"        . .         O*P*Q*R*R*S*T*U*V*W*X*Y*Z*`* =.=+=@=#=$=%=&=*===-=;=                        ",
"      . r .                     >=,='=)=!=~={=]=^=/=(=_=:=<=[=}=|=1=2=3=                        ",
"    . ) s . . . . . . . .       4=5=6=7=8=9=0=a=b=c=d=e=f=g=h=i=j=k=l=m=n=                      ",
"  . ) 5 t Q >.6.q.q.#+o=.       p=q=r=s=t=u=v=w=x=y=z=A=B=C=D=E=F=G=H=I=J=                      ",
". + ! 6 t R ,.7.J.J.$+:+.     K=L=M=N=O=P=Q=R=S=T=U=U=U=V=W=W=X=Y=Y=Y=Z=`= -                    ",
"  . + 7 u S S S S S S S .     .-+-@-#-$-%-%-%-%-%-%-%-%-%-%-%-%-%-&-&-&-*-=-                    ",
"    . + v . . . . . . . .                                                                       ",
"      . + .                                                                                     ",
"        . .                                                                                     ",
"          .                                                                                     ",
"                                                                                                ",
"                                                                                                ",
"                                                                                                ",
"                                                                                                ",
"                                                                                                "};
